<?xml version="1.0" encoding="UTF-8" standalone="no"?>
<!-- Created with Inkscape (http://www.inkscape.org/) -->

<svg
   xmlns:dc="http://purl.org/dc/elements/1.1/"
   xmlns:cc="http://creativecommons.org/ns#"
   xmlns:rdf="http://www.w3.org/1999/02/22-rdf-syntax-ns#"
   xmlns:svg="http://www.w3.org/2000/svg"
   xmlns="http://www.w3.org/2000/svg"
   xmlns:xlink="http://www.w3.org/1999/xlink"
   xmlns:sodipodi="http://sodipodi.sourceforge.net/DTD/sodipodi-0.dtd"
   xmlns:inkscape="http://www.inkscape.org/namespaces/inkscape"
   width="200"
   height="200"
   id="svg2"
   version="1.1"
   inkscape:version="0.48.4 r9939"
   sodipodi:docname="icon-shipping.svg"
   inkscape:export-filename="/media/mokush/dev/bizcardmaker/app/images/blog/icon-shipping.png"
   inkscape:export-xdpi="36"
   inkscape:export-ydpi="36">
  <defs
     id="defs4">
    <linearGradient
       inkscape:collect="always"
       xlink:href="#linearGradient3884"
       id="linearGradient3045"
       gradientUnits="userSpaceOnUse"
       x1="200"
       y1="772.36218"
       x2="-19.999998"
       y2="992.36218" />
    <linearGradient
       inkscape:collect="always"
       id="linearGradient3884">
      <stop
         style="stop-color:#122648;stop-opacity:1;"
         offset="0"
         id="stop3886" />
      <stop
         style="stop-color:#122648;stop-opacity:0;"
         offset="1"
         id="stop3888" />
    </linearGradient>
    <clipPath
       clipPathUnits="userSpaceOnUse"
       id="clipPath3870">
      <path
         mask="none"
         sodipodi:nodetypes="cccccccc"
         inkscape:connector-curvature="0"
         id="path3872"
         d="M 61.349337,687.7096 -165.71098,914.7699 52.939695,1129.2158 280,902.15544 254.77106,876.92653 69.758977,889.54099 l 0,-201.83139 z"
         style="opacity:0.61702127;fill:url(#linearGradient3874);fill-opacity:1;stroke:none" />
    </clipPath>
    <radialGradient
       inkscape:collect="always"
       xlink:href="#linearGradient3831"
       id="radialGradient3837"
       cx="663.58038"
       cy="187.32571"
       fx="663.58038"
       fy="187.32571"
       r="460"
       gradientTransform="matrix(-0.9103665,0.4138029,-0.43478255,-0.95652173,1349.1277,162.50357)"
       gradientUnits="userSpaceOnUse" />
    <linearGradient
       id="linearGradient3831">
      <stop
         style="stop-color:#2e384a;stop-opacity:1;"
         offset="0"
         id="stop3833" />
      <stop
         style="stop-color:#212834;stop-opacity:1;"
         offset="1"
         id="stop3835" />
    </linearGradient>
    <radialGradient
       r="460"
       fy="187.32571"
       fx="663.58038"
       cy="187.32571"
       cx="663.58038"
       gradientTransform="matrix(-0.43539267,0.17038943,-0.20793948,-0.39386189,678.40735,536.27438)"
       gradientUnits="userSpaceOnUse"
       id="radialGradient3072"
       xlink:href="#linearGradient3831"
       inkscape:collect="always" />
    <clipPath
       clipPathUnits="userSpaceOnUse"
       id="clipPath3946">
      <path
         transform="matrix(1.3460912,0,0,1.3460912,28.971235,622.91395)"
         d="m 200,100 a 100,100 0 1 1 -200,0 100,100 0 1 1 200,0 z"
         sodipodi:ry="100"
         sodipodi:rx="100"
         sodipodi:cy="100"
         sodipodi:cx="100"
         id="path3948"
         style="fill:#f2f2f2;stroke:none"
         sodipodi:type="arc" />
    </clipPath>
  </defs>
  <sodipodi:namedview
     id="base"
     pagecolor="#ffffff"
     bordercolor="#666666"
     borderopacity="1.0"
     inkscape:pageopacity="0"
     inkscape:pageshadow="2"
     inkscape:zoom="1.4"
     inkscape:cx="165.61772"
     inkscape:cy="110.63855"
     inkscape:document-units="px"
     inkscape:current-layer="layer1"
     showgrid="false"
     inkscape:window-width="1323"
     inkscape:window-height="768"
     inkscape:window-x="43"
     inkscape:window-y="0"
     inkscape:window-maximized="1"
     showguides="true"
     inkscape:guide-bbox="true"
     fit-margin-top="0"
     fit-margin-left="0"
     fit-margin-right="0"
     fit-margin-bottom="0"
     inkscape:snap-bbox="true"
     borderlayer="true">
    <inkscape:grid
       type="xygrid"
       id="grid3012"
       empspacing="5"
       visible="true"
       enabled="true"
       snapvisiblegridlinesonly="true" />
  </sodipodi:namedview>
  <metadata
     id="metadata7">
    <rdf:RDF>
      <cc:Work
         rdf:about="">
        <dc:format>image/svg+xml</dc:format>
        <dc:type
           rdf:resource="http://purl.org/dc/dcmitype/StillImage" />
        <dc:title></dc:title>
      </cc:Work>
    </rdf:RDF>
  </metadata>
  <g
     inkscape:label="Layer 1"
     inkscape:groupmode="layer"
     id="layer1"
     transform="translate(-63.580357,-597.91394)">
    <path
       transform="matrix(0.95,0,0,0.95,68.580357,602.91394)"
       d="m 200,100 a 100,100 0 1 1 -200,0 100,100 0 1 1 200,0 z"
       sodipodi:ry="100"
       sodipodi:rx="100"
       sodipodi:cy="100"
       sodipodi:cx="100"
       id="path3950"
       style="fill:#00a6de;stroke:none;fill-opacity:1"
       sodipodi:type="arc" />
    <path
       id="path4040"
       d="m 181.91369,726.43246 q 0,-3.31018 2.41898,-5.72916 2.41899,-2.41899 5.72917,-2.41899 3.31019,0 5.72917,2.41899 2.41897,2.41899 2.41897,5.72916 0,3.31019 -2.41897,5.72917 -2.41898,2.41898 -5.72917,2.41898 -3.31018,0 -5.72917,-2.41898 -2.41898,-2.41899 -2.41898,-5.72917 z m 24.44445,-32.59259 h -24.44445 v -16.2963 h 10.05787 q 0.82755,0 1.40047,0.57292 l 12.41319,12.41319 q 0.57292,0.57292 0.57292,1.40047 v 1.90972 z m -81.48149,32.59259 q 0,-3.31018 2.41898,-5.72916 2.41899,-2.41899 5.72916,-2.41899 3.31019,0 5.72918,2.41899 2.41898,2.41899 2.41898,5.72916 0,3.31019 -2.41898,5.72917 -2.41899,2.41898 -5.72918,2.41898 -3.31017,0 -5.72916,-2.41898 -2.41898,-2.41899 -2.41898,-5.72917 z m -16.2963,-69.25925 v 65.18519 q 0,0.95486 0.25463,1.68691 0.25463,0.73206 0.85938,1.17766 0.60474,0.4456 1.05035,0.73205 0.44559,0.28647 1.49595,0.38196 1.05035,0.0955 1.43228,0.12731 0.38196,0.0319 1.62326,0 1.24132,-0.0319 1.4323,-0.0319 0,6.74769 4.77431,11.52199 4.77431,4.77432 11.52198,4.77432 6.74769,0 11.522,-4.77432 4.77431,-4.7743 4.77431,-11.52199 h 24.44444 q 0,6.74769 4.77431,11.52199 4.77431,4.77432 11.52199,4.77432 6.74768,0 11.52199,-4.77432 4.77431,-4.7743 4.77431,-11.52199 h 4.07407 q 0.19098,0 1.4323,0.0319 1.24131,0.0319 1.62326,0 0.38193,-0.0319 1.43229,-0.12731 1.05035,-0.0955 1.49594,-0.38196 0.44561,-0.28645 1.05035,-0.73205 0.60474,-0.4456 0.85938,-1.17766 0.25463,-0.73205 0.25463,-1.68691 0,-1.6551 -1.2095,-2.86459 -1.20948,-1.2095 -2.86458,-1.2095 v -20.37037 q 0,-0.50926 0.0319,-2.228 0.0319,-1.71875 0,-2.41899 -0.0319,-0.70023 -0.15914,-2.19617 -0.12731,-1.49595 -0.41378,-2.35532 -0.28646,-0.85937 -0.8912,-1.94156 -0.60475,-1.08217 -1.43229,-1.90971 l -12.60417,-12.60417 q -1.20949,-1.20948 -3.2147,-2.03703 -2.0052,-0.82755 -3.72396,-0.82755 h -10.18518 v -12.22223 q 0,-1.65508 -1.2095,-2.86458 -1.20948,-1.2095 -2.86458,-1.2095 h -65.18518 q -1.65509,0 -2.86458,1.2095 -1.2095,1.2095 -1.2095,2.86458 z"
       inkscape:connector-curvature="0"
       style="fill:#ffffff;fill-opacity:1" />
  </g>
</svg>
