<?xml version="1.0" encoding="UTF-8" standalone="no"?>
<svg
   class="tw-w-32 md:tw-w-48"
   width="225"
   height="40"
   viewBox="0 0 225 40"
   fill="none"
   version="1.1"
   id="svg4"
   sodipodi:docname="logo-design-com.svg"
   inkscape:version="1.3.2 (091e20ef0f, 2023-11-25, custom)"
   xmlns:inkscape="http://www.inkscape.org/namespaces/inkscape"
   xmlns:sodipodi="http://sodipodi.sourceforge.net/DTD/sodipodi-0.dtd"
   xmlns="http://www.w3.org/2000/svg"
   xmlns:svg="http://www.w3.org/2000/svg">
  <sodipodi:namedview
     id="namedview4"
     pagecolor="#ffffff"
     bordercolor="#000000"
     borderopacity="0.25"
     inkscape:showpageshadow="2"
     inkscape:pageopacity="0.0"
     inkscape:pagecheckerboard="0"
     inkscape:deskcolor="#d1d1d1"
     inkscape:zoom="5.0533333"
     inkscape:cx="112.5"
     inkscape:cy="19.986807"
     inkscape:window-width="1876"
     inkscape:window-height="1052"
     inkscape:window-x="0"
     inkscape:window-y="0"
     inkscape:window-maximized="1"
     inkscape:current-layer="svg4" />
  <g
     clip-path="url(#clip0_3382_3712)"
     id="g3"
     style="fill:#333333">
    <g
       clip-path="url(#clip1_3382_3712)"
       id="g2"
       style="fill:#333333">
      <path
         fill-rule="evenodd"
         clip-rule="evenodd"
         d="M86.0343 27.1775C84.9681 26.4823 84.2161 25.5377 83.7783 24.3438L86.6586 22.6655C86.9606 23.4215 87.3883 23.981 87.9397 24.3438C88.491 24.7066 89.2065 24.8891 90.0822 24.8891C90.7916 24.8891 91.3409 24.7228 91.726 24.3904C92.1111 24.058 92.3037 23.6871 92.3037 23.2797C92.3037 22.9776 92.2125 22.7202 92.0321 22.5094C91.8497 22.2986 91.5416 22.0979 91.1017 21.9074C90.6639 21.7189 90.0274 21.504 89.1964 21.2608C87.7451 20.8372 86.5877 20.2635 85.7262 19.5379C84.8648 18.8122 84.433 17.7765 84.433 16.4306C84.433 15.4779 84.6722 14.6509 85.1465 13.9475C85.6228 13.2442 86.2573 12.703 87.0519 12.326C87.8464 11.949 88.7038 11.7584 89.6261 11.7584C90.9112 11.7584 92.0382 12.0645 93.005 12.6766C93.9719 13.2888 94.7279 14.1543 95.2732 15.2732L92.326 16.9515C92.0382 16.3171 91.6753 15.8509 91.2375 15.5569C90.7997 15.263 90.2626 15.1151 89.6281 15.1151C89.1437 15.1151 88.7281 15.2468 88.3815 15.5123C88.0329 15.7779 87.8606 16.084 87.8606 16.4306C87.8606 16.7184 87.9316 16.9637 88.0755 17.1684C88.2194 17.3731 88.4829 17.5657 88.87 17.7461C89.2572 17.9265 89.8268 18.1312 90.5828 18.3582C91.5963 18.6764 92.4679 19.0271 93.2016 19.4122C93.9354 19.7973 94.5394 20.3223 95.0158 20.9872C95.4921 21.652 95.7293 22.4831 95.7293 23.4824C95.7293 24.4816 95.4799 25.2701 94.9813 25.9877C94.4827 26.7052 93.7976 27.2565 92.93 27.6437C92.0605 28.0288 91.0814 28.2214 89.993 28.2214C88.4201 28.2214 87.1025 27.8748 86.0363 27.1775H86.0343ZM61.8162 15.9867C61.0824 14.7685 60.0912 13.8098 58.8446 13.1064C57.5981 12.4031 56.2339 12.0524 54.7522 12.0524H48.2437V27.9255H54.7522C56.2339 27.9255 57.6021 27.5809 58.8568 26.8938C60.1115 26.2067 61.1027 25.2621 61.8283 24.0601C62.554 22.8581 62.9168 21.5163 62.9168 20.0346C62.9168 18.5529 62.5499 17.2029 61.8162 15.9867ZM57.144 24.0581C56.4103 24.4756 55.6137 24.6824 54.7522 24.6824V24.6844H51.6449V15.2732H54.7522C55.6137 15.2732 56.4103 15.4841 57.144 15.9077C57.8778 16.3313 58.4555 16.9049 58.8791 17.6306C59.3007 18.3563 59.5135 19.1508 59.5135 20.0123C59.5135 20.8737 59.3027 21.6582 58.8791 22.3696C58.4555 23.0791 57.8778 23.6426 57.144 24.0581ZM71.8272 24.6844V21.4636H77.5879V18.2204H71.8272V15.2732H78.1311V12.0524H68.426V27.9275H78.2669V24.6844H71.8272ZM101.49 12.0524V27.9255H104.913V12.0524H101.49ZM118.407 19.3089H118.409V22.5277H123.126C122.732 23.2391 122.177 23.7986 121.459 24.206C120.74 24.6134 119.905 24.8181 119.043 24.8181C118.182 24.8181 117.387 24.6033 116.662 24.1715C115.936 23.7418 115.358 23.1601 114.927 22.4263C114.495 21.6946 114.28 20.896 114.28 20.0345C114.28 19.1731 114.491 18.3765 114.914 17.6427C115.338 16.909 115.916 16.3313 116.649 15.9076C117.381 15.484 118.18 15.2732 119.041 15.2732C119.842 15.2732 120.588 15.4576 121.275 15.8286C121.962 16.1995 122.518 16.7022 122.941 17.3366L125.639 15.2286C124.883 14.1847 123.928 13.3597 122.771 12.7557C121.615 12.1497 120.371 11.8476 119.041 11.8476C117.56 11.8476 116.191 12.2145 114.937 12.9483C113.682 13.682 112.689 14.6752 111.955 15.9299C111.221 17.1846 110.854 18.5528 110.854 20.0345C110.854 21.5162 111.221 22.8844 111.955 24.1391C112.687 25.3938 113.682 26.3931 114.937 27.1329C116.191 27.8728 117.604 28.2437 119.041 28.2437C120.478 28.2437 121.812 27.9052 123.044 27.2241C124.277 26.5431 125.256 25.6289 125.982 24.4796C126.707 23.3304 127.07 22.0838 127.07 20.7379V19.3089H118.409V19.3068L118.407 19.3089ZM142.24 12.0524V21.1008H142.238L136.41 12.0524H133.009V27.9255H136.41V17.9934L142.761 27.9255H145.641V12.0524H142.24ZM153.023 25.1932C153.317 24.8972 153.737 24.7513 154.282 24.7513C154.827 24.7513 155.245 24.8992 155.541 25.1932C155.835 25.4871 155.982 25.9148 155.982 26.4742C155.982 27.0336 155.835 27.4613 155.541 27.7552C155.247 28.0491 154.827 28.1971 154.282 28.1971C153.737 28.1971 153.319 28.0491 153.023 27.7552C152.729 27.4593 152.581 27.0336 152.581 26.4742C152.581 25.9148 152.729 25.4871 153.023 25.1932ZM166.253 12.9483C164.999 13.682 164.005 14.6752 163.272 15.9299H163.274C162.54 17.1846 162.173 18.5528 162.173 20.0345C162.173 21.5162 162.54 22.8844 163.274 24.1391C164.005 25.3938 165.001 26.3931 166.255 27.1329C167.51 27.8728 168.832 28.2437 170.36 28.2437C171.888 28.2437 173.297 27.8464 174.59 27.0539C175.881 26.2593 176.883 25.2114 177.594 23.9121L174.578 22.2784C174.171 23.0506 173.589 23.6668 172.833 24.1269C172.077 24.5871 171.223 24.8181 170.362 24.8181C169.5 24.8181 168.706 24.6033 167.98 24.1715C167.255 23.7418 166.677 23.1601 166.245 22.4263C165.813 21.6946 165.599 20.896 165.599 20.0345C165.599 19.1731 165.809 18.3765 166.233 17.6427C166.657 16.909 167.234 16.3313 167.968 15.9076C168.7 15.484 169.468 15.2732 170.36 15.2732C171.252 15.2732 172.067 15.4962 172.808 15.9421C173.548 16.388 174.13 16.988 174.554 17.7441L177.547 16.1347C176.836 14.8496 175.839 13.8138 174.554 13.0273C173.269 12.2409 171.84 11.8476 170.358 11.8476C168.876 11.8476 167.508 12.2145 166.253 12.9483ZM187.003 27.1329C185.748 26.3931 184.753 25.3938 184.021 24.1391C183.288 22.8844 182.921 21.5162 182.921 20.0345C182.921 18.5528 183.288 17.1846 184.021 15.9299C184.755 14.6752 185.748 13.682 187.003 12.9483C188.258 12.2145 189.626 11.8476 191.108 11.8476C192.589 11.8476 193.958 12.2145 195.212 12.9483C196.467 13.682 197.46 14.6752 198.194 15.9299C198.928 17.1846 199.295 18.5528 199.295 20.0345C199.295 21.5162 198.928 22.8844 198.194 24.1391C197.46 25.3938 196.467 26.3911 195.212 27.1329C193.958 27.8748 192.589 28.2437 191.108 28.2437C189.626 28.2437 188.258 27.8728 187.003 27.1329ZM193.5 24.1736C194.233 23.7418 194.815 23.1601 195.245 22.4284C195.677 21.6946 195.891 20.898 195.891 20.0365C195.891 19.1751 195.677 18.3805 195.245 17.6549C194.813 16.9292 194.231 16.3515 193.5 15.9198C192.766 15.4881 191.969 15.2732 191.108 15.2732C190.246 15.2732 189.448 15.484 188.716 15.9076C187.982 16.3313 187.404 16.909 186.981 17.6427C186.557 18.3765 186.346 19.1731 186.346 20.0345C186.346 20.896 186.561 21.6946 186.993 22.4263C187.425 23.1601 188.002 23.7418 188.728 24.1715C189.454 24.6033 190.248 24.8181 191.11 24.8181C191.971 24.8181 192.768 24.6033 193.502 24.1715L193.5 24.1736ZM215.03 23.8898L209.521 12.0524H209.519H205.663V27.9255H209.292V19.5805L213.056 27.9255H217.002L220.766 19.5805V27.9255H224.394V12.0524H220.539L215.03 23.8898Z"
         fill="white"
         id="path1"
         style="fill:#333333" />
      <path
         d="M33.9901 20C33.9901 9.16185 25.416 0.340529 14.7157 0.0101348C14.509 0.00405392 14.3022 0 14.0934 0H0V22.4871H12.332C12.5063 22.4871 12.6786 22.4688 12.8428 22.4344C13.9718 22.1972 14.8191 21.2 14.8191 20C14.8191 18.6257 13.7063 17.5129 12.332 17.5129H4.14513V4.14513H14.0934C14.2394 4.14513 14.3995 4.14716 14.59 4.15324C18.6845 4.27891 22.5195 5.98155 25.3836 8.94497C28.2599 11.9205 29.8429 15.8468 29.8429 20C29.8429 24.1532 28.2599 28.0795 25.3836 31.055C22.5195 34.0184 18.6845 35.7211 14.586 35.8468C14.3995 35.8528 14.2374 35.8549 14.0934 35.8549H4.14513V31.2962H14.5799C14.6853 31.2962 14.7887 31.2942 14.8941 31.2902C20.3162 31.1037 24.662 26.1214 24.662 20C24.662 13.8786 20.3162 8.89632 14.8941 8.70984C14.7887 8.70579 14.6853 8.70376 14.5799 8.70376H8.29026V13.0658H14.5799C14.6407 13.0658 14.7015 13.0678 14.7623 13.0698C16.2582 13.1205 17.6771 13.8299 18.7514 15.0704C19.8885 16.3839 20.5169 18.1332 20.5169 19.998C20.5169 21.8628 19.8885 23.612 18.7514 24.9255C17.6751 26.164 16.2582 26.8754 14.7603 26.9261C14.7015 26.9281 14.6407 26.9302 14.5799 26.9302H4.14513V26.9687H0V39.9959H14.0934C14.3002 39.9959 14.5069 39.9919 14.7157 39.9858C25.416 39.6554 33.9901 30.8341 33.9901 19.9959V20Z"
         fill="white"
         id="path2"
         style="fill:#333333" />
    </g>
  </g>
  <defs
     id="defs4">
    <clipPath
       id="clip0_3382_3712">
      <rect
         width="225"
         height="40"
         fill="white"
         id="rect3" />
    </clipPath>
    <clipPath
       id="clip1_3382_3712">
      <rect
         width="225"
         height="40"
         fill="white"
         id="rect4" />
    </clipPath>
  </defs>
</svg>
