<?xml version="1.0" encoding="UTF-8" standalone="no"?>
<svg
   width="173"
   height="28"
   viewBox="0 0 173 28"
   version="1.1"
   id="svg46"
   sodipodi:docname="logo-brandcrowd.svg"
   inkscape:version="1.1.1 (3bf5ae0d25, 2021-09-20)"
   xmlns:inkscape="http://www.inkscape.org/namespaces/inkscape"
   xmlns:sodipodi="http://sodipodi.sourceforge.net/DTD/sodipodi-0.dtd"
   xmlns:xlink="http://www.w3.org/1999/xlink"
   xmlns="http://www.w3.org/2000/svg"
   xmlns:svg="http://www.w3.org/2000/svg">
  <sodipodi:namedview
     id="namedview48"
     pagecolor="#ffffff"
     bordercolor="#666666"
     borderopacity="1.0"
     inkscape:pageshadow="2"
     inkscape:pageopacity="0.0"
     inkscape:pagecheckerboard="0"
     showgrid="false"
     inkscape:zoom="3.8554913"
     inkscape:cx="94.54048"
     inkscape:cy="-6.2248876"
     inkscape:window-width="1875"
     inkscape:window-height="1051"
     inkscape:window-x="45"
     inkscape:window-y="0"
     inkscape:window-maximized="1"
     inkscape:current-layer="g44" />
  <title
     id="title2">brandcrowd-logo</title>
  <defs
     id="defs11">
    <path
       id="a"
       d="M0 0h34v28H0z" />
    <path
       d="M0 18.962S13.89 17.085 15.102 2.98c0 0 8.94 3.915 17.88-2.95C33.315 13.487 8.787 27.651 0 18.962"
       id="c" />
    <path
       d="M24.32 14.793c-5.24 4.203-11.943 7.002-17.407 6.831.414-.127 5.957-1.92 9.584-7.596 0 0 3.838 3.098 7.824.765z"
       id="d" />
    <path
       d="M.253 13.013S9.678 11.739 10.5 2.167c0 0 6.066 2.657 12.132-2.002C22.86 9.297 6.216 18.909.252 13.013"
       id="e" />
    <path
       d="M16.755 10.184c-3.556 2.852-8.104 4.751-11.812 4.635.282-.087 4.043-1.303 6.504-5.155 0 0 2.604 2.103 5.309.52z"
       id="f" />
    <path
       d="M.104 9.097s6.674-.901 7.256-7.68c0 0 4.296 1.882 8.591-1.417C16.112 6.467 4.326 13.273.104 9.097"
       id="g" />
    <path
       d="M11.79 7.094c-2.518 2.02-5.739 3.365-8.365 3.283.198-.061 2.862-.922 4.605-3.65 0 0 1.845 1.488 3.76.367z"
       id="h" />
  </defs>
  <g
     fill="none"
     fill-rule="evenodd"
     id="g44">
    <path
       d="m 47.369,17.997 c 0,-1.72 -1.178,-2.58 -3.532,-2.58 h -1.57 v 4.978 c 0.49,0.087 0.948,0.13 1.374,0.13 2.485,0 3.728,-0.843 3.728,-2.528 m -0.59,-7.74 c 0,-0.928 -0.326,-1.573 -0.98,-1.934 -0.475,-0.24 -1.202,-0.36 -2.183,-0.36 -0.409,0 -0.858,0.042 -1.349,0.128 v 4.54 h 1.496 c 2.012,0 3.017,-0.79 3.017,-2.373 m 3.752,7.97 c 0,3.44 -2.37,5.16 -7.112,5.16 -1.292,0 -2.698,-0.155 -4.219,-0.464 V 5.692 c 1.7,-0.344 3.123,-0.516 4.268,-0.516 4.3,0 6.45,1.66 6.45,4.979 a 3.96,3.96 0 0 1 -0.699,2.27 4.2,4.2 0 0 1 -1.803,1.521 v 0.052 c 0.965,0.241 1.725,0.744 2.282,1.51 0.555,0.764 0.833,1.672 0.833,2.72 m 10.252,-8.022 -0.883,2.657 a 5.16,5.16 0 0 0 -1.618,-0.258 7.08,7.08 0 0 0 -2.208,0.336 c 0.016,0.12 0.025,0.206 0.025,0.258 v 9.905 h -2.944 v -9.828 c 0,-0.395 -0.073,-1.04 -0.22,-1.935 2.158,-0.945 4.022,-1.419 5.592,-1.419 0.817,0 1.57,0.095 2.256,0.284 m 7.873,10.241 a 3.745,3.745 0 0 1 -0.05,-0.49 v -3.173 c -0.245,0.258 -0.768,0.482 -1.57,0.67 -0.996,0.242 -1.626,0.422 -1.887,0.542 -0.606,0.293 -0.908,0.706 -0.908,1.239 0,1.049 0.76,1.573 2.281,1.573 0.703,0 1.414,-0.12 2.134,-0.361 m 3.066,1.935 c -2.094,0.67 -3.835,1.006 -5.224,1.006 -1.44,0 -2.649,-0.276 -3.63,-0.826 -1.243,-0.705 -1.864,-1.737 -1.864,-3.095 0,-1.496 0.654,-2.588 1.962,-3.276 0.523,-0.275 1.75,-0.636 3.679,-1.083 1.308,-0.31 1.962,-0.749 1.962,-1.316 0,-0.791 -0.687,-1.187 -2.06,-1.187 -1.129,0 -2.265,0.258 -3.41,0.774 l -1.005,-2.348 a 11.016,11.016 0 0 1 4.831,-1.109 c 1.39,0 2.486,0.327 3.287,0.98 0.866,0.723 1.3,1.798 1.3,3.225 v 6.63 c 0,0.326 0.057,0.868 0.172,1.625 m 13.857,0.722 h -2.944 v -8.1 c 0,-1.582 -0.81,-2.373 -2.428,-2.373 -0.687,0 -1.513,0.19 -2.477,0.568 0.033,0.24 0.049,0.421 0.049,0.541 v 9.364 H 74.837 V 13.018 c 0,-0.378 -0.057,-0.98 -0.172,-1.806 2.29,-0.86 4.145,-1.29 5.567,-1.29 3.565,0 5.347,1.531 5.347,4.592 v 8.59 z m 10.815,-2.631 a 4.28,4.28 0 0 1 -0.049,-0.516 v -6.733 c -0.507,-0.412 -1.177,-0.619 -2.011,-0.619 -1.047,0 -1.84,0.396 -2.38,1.187 -0.457,0.705 -0.686,1.642 -0.686,2.811 0,1.222 0.278,2.193 0.834,2.915 0.604,0.792 1.471,1.187 2.6,1.187 0.735,0 1.3,-0.077 1.692,-0.232 m 3.041,1.96 c -1.668,0.637 -3.254,0.955 -4.758,0.955 -1.946,0 -3.548,-0.65 -4.807,-1.948 -1.26,-1.298 -1.888,-2.962 -1.888,-4.991 0,-1.806 0.474,-3.32 1.422,-4.54 1.03,-1.324 2.428,-1.987 4.194,-1.987 0.997,0 1.913,0.233 2.747,0.697 V 4.17 h 2.943 v 16.535 c 0,0.344 0.049,0.92 0.147,1.728"
       fill="#ffffff"
       id="path13"
       style="fill:#333333" />
    <path
       d="m 115.034,22.201 c -1.504,0.774 -3,1.161 -4.488,1.161 -2.535,0 -4.599,-0.843 -6.193,-2.528 -1.594,-1.685 -2.391,-3.86 -2.391,-6.526 0,-2.648 0.74,-4.828 2.22,-6.54 1.479,-1.71 3.47,-2.566 5.971,-2.566 1.537,0 3.147,0.396 4.832,1.187 l -1.006,2.63 c -1.455,-0.67 -2.747,-1.005 -3.875,-1.005 -1.537,0 -2.747,0.61 -3.63,1.831 -0.818,1.1 -1.226,2.485 -1.226,4.153 0,1.96 0.474,3.526 1.422,4.695 1.014,1.238 2.437,1.857 4.268,1.857 1.112,0 2.215,-0.275 3.31,-0.825 z m 10.252,-11.995 -0.883,2.657 a 5.161,5.161 0 0 0 -1.619,-0.258 c -0.785,0 -1.52,0.112 -2.207,0.336 0.016,0.12 0.024,0.206 0.024,0.258 v 9.905 h -2.943 v -9.828 c 0,-0.395 -0.074,-1.04 -0.22,-1.935 2.158,-0.945 4.022,-1.419 5.591,-1.419 0.817,0 1.57,0.095 2.257,0.284 m 9.54,6.474 c 0,-1.117 -0.213,-2.037 -0.638,-2.76 -0.507,-0.876 -1.259,-1.315 -2.256,-1.315 -0.998,0 -1.75,0.43 -2.256,1.29 -0.426,0.722 -0.638,1.65 -0.638,2.786 0,1.135 0.212,2.055 0.638,2.76 0.506,0.86 1.258,1.29 2.256,1.29 0.997,0 1.75,-0.43 2.256,-1.29 0.425,-0.705 0.638,-1.625 0.638,-2.76 m 3.262,-0.026 c 0,1.96 -0.564,3.573 -1.692,4.837 -1.129,1.264 -2.616,1.896 -4.464,1.896 -1.848,0 -3.344,-0.645 -4.488,-1.935 -1.112,-1.238 -1.668,-2.837 -1.668,-4.798 0,-1.96 0.564,-3.573 1.692,-4.837 1.129,-1.263 2.616,-1.896 4.464,-1.896 1.848,0 3.335,0.633 4.464,1.896 1.128,1.264 1.692,2.876 1.692,4.837 M 160.063,10.206 155.5,23.31 c -0.998,0 -1.782,-0.18 -2.354,-0.541 -0.622,-0.396 -1.096,-1.067 -1.423,-2.012 l -2.158,-6.295 -2.87,8.848 c -0.997,0 -1.774,-0.172 -2.33,-0.516 -0.621,-0.395 -1.103,-1.066 -1.447,-2.012 l -3.801,-10.576 h 3.335 l 2.894,9.08 h 0.05 l 0.22,-0.696 2.674,-8.384 h 2.673 l 3.09,9.08 h 0.05 l 2.746,-9.08 h 3.213 z m 9.442,10.267 a 4.28,4.28 0 0 1 -0.049,-0.516 v -6.733 c -0.507,-0.412 -1.177,-0.619 -2.011,-0.619 -1.046,0 -1.84,0.396 -2.38,1.187 -0.457,0.705 -0.686,1.642 -0.686,2.811 0,1.222 0.278,2.193 0.834,2.915 0.605,0.792 1.472,1.187 2.6,1.187 0.736,0 1.3,-0.077 1.692,-0.232 m 3.042,1.96 c -1.668,0.637 -3.255,0.955 -4.759,0.955 -1.946,0 -3.548,-0.65 -4.807,-1.948 -1.259,-1.298 -1.888,-2.962 -1.888,-4.991 0,-1.806 0.474,-3.32 1.422,-4.54 1.03,-1.324 2.428,-1.987 4.194,-1.987 0.997,0 1.913,0.233 2.747,0.697 V 4.17 h 2.943 v 16.535 c 0,0.344 0.05,0.92 0.148,1.728"
       fill="#f21b3f"
       id="path15" />
    <mask
       id="b"
       fill="#ffffff">
      <use
         xlink:href="#a"
         id="use17"
         x="0"
         y="0"
         width="100%"
         height="100%" />
    </mask>
    <g
       mask="url(#b)"
       id="g26">
      <g
         transform="translate(0,6.444)"
         id="g24">
        <use
           fill="#f21b3f"
           xlink:href="#c"
           id="use20"
           x="0"
           y="0"
           width="100%"
           height="100%" />
        <use
           fill="#bf000c"
           xlink:href="#d"
           id="use22"
           x="0"
           y="0"
           width="100%"
           height="100%" />
      </g>
    </g>
    <g
       mask="url(#b)"
       id="g34">
      <g
         transform="translate(5.323,3.222)"
         id="g32">
        <use
           fill="#7d7c7a"
           xlink:href="#e"
           id="use28"
           x="0"
           y="0"
           width="100%"
           height="100%" />
        <use
           fill="#5d5549"
           xlink:href="#f"
           id="use30"
           x="0"
           y="0"
           width="100%"
           height="100%" />
      </g>
    </g>
    <g
       mask="url(#b)"
       id="g42">
      <g
         transform="translate(8.516)"
         id="g40">
        <use
           fill="#8da1b2"
           xlink:href="#g"
           id="use36"
           x="0"
           y="0"
           width="100%"
           height="100%" />
        <use
           fill="#66798a"
           xlink:href="#h"
           id="use38"
           x="0"
           y="0"
           width="100%"
           height="100%" />
      </g>
    </g>
  </g>
</svg>
